<svg viewBox="0 0 64 64" xmlns="http://www.w3.org/2000/svg">
  <rect width="64" height="64" rx="14" fill="#f8f5ef"/>
  <path d="M8 50 C 24 47, 44 47, 58 50" stroke="#7aa15a" stroke-width="2.5" stroke-linecap="round" fill="none"/>
  <path d="M44 48 q 5 -8 12 -9 q -7 5 -8 10 Z" fill="#7aa15a" opacity="0.7"/>
  <path d="M22 47 C 17 39, 20 26, 30 24 C 40 21, 48 29, 47 37 C 46 42, 41 46.5, 33 47 Z" fill="#a8c4d4"/>
  <path d="M28 33 C 33 29, 39 30, 42 34 C 38 37, 32 37, 28 33 Z" fill="#3f2f23" opacity="0.15"/>
  <circle cx="44" cy="26" r="7" fill="#a8c4d4"/>
  <path d="M50.5 25.5 l 7 1.4 l -7 2.6 Z" fill="#6f5b46"/>
  <circle cx="46" cy="24.5" r="1.2" fill="#3f2f23"/>
  <path d="M22 37 L 10 30 L 13 38 Z" fill="#a8c4d4" opacity="0.9"/>
</svg>
